<svg width="590" height="373" viewBox="0 0 590 373" fill="none" xmlns="http://www.w3.org/2000/svg">
<rect width="590" height="373" fill="black"/>
<g clip-path="url(#clip0_518_241)">
<path d="M81.383 216.162C83.4028 216.162 85.3201 215.982 87.1245 215.58C88.9536 215.177 90.5778 214.545 91.9479 213.606C93.3179 212.706 94.4514 211.47 95.2777 209.895C96.1039 208.338 96.4994 206.314 96.4994 203.867C96.4994 199.076 95.1505 195.672 92.4705 193.606C89.7834 191.569 86.1994 190.555 81.7926 190.555H59.533V216.162H81.383ZM80.2531 176.579C83.8795 176.579 86.8809 175.718 89.2608 173.97C91.616 172.254 92.76 169.411 92.76 165.513C92.76 163.352 92.3787 161.562 91.616 160.174C90.8286 158.787 89.7834 157.699 88.4628 156.94C87.1527 156.149 85.6732 155.602 83.9536 155.309C82.2693 154.977 80.5003 154.849 78.6889 154.849H59.533V176.579H80.2531ZM82.9014 139.009C87.347 139.009 91.3617 139.394 95.0305 140.189C98.678 140.962 101.792 142.254 104.423 144.027C107.015 145.796 109.042 148.151 110.493 151.117C111.909 154.041 112.622 157.699 112.622 162.028C112.622 166.71 111.559 170.619 109.434 173.744C107.294 176.865 104.148 179.425 99.9457 181.413C105.669 183.059 109.907 185.958 112.717 190.075C115.542 194.221 116.923 199.185 116.923 205.001C116.923 209.718 116.019 213.775 114.218 217.19C112.396 220.647 109.917 223.45 106.863 225.611C103.784 227.794 100.246 229.393 96.284 230.435C92.3646 231.476 88.2968 231.999 84.1302 231.999H39.0601V139.009H82.9014Z" fill="white"/>
<path d="M167.36 180.478C165.16 178.045 161.439 176.728 156.898 176.728C153.942 176.728 151.495 177.226 149.539 178.239C147.625 179.238 146.054 180.485 144.857 181.95C143.663 183.44 142.848 185.012 142.375 186.692C141.901 188.331 141.619 189.817 141.531 191.131H171.622C171.181 186.413 169.567 182.928 167.36 180.478ZM146.11 215.852C148.879 218.556 152.883 219.919 158.07 219.919C161.799 219.919 165.023 218.977 167.727 217.095C170.407 215.22 172.039 213.21 172.671 211.127H188.956C186.339 219.231 182.367 225.018 176.947 228.5C171.594 231.999 165.061 233.743 157.452 233.743C152.148 233.743 147.375 232.882 143.091 231.194C138.808 229.481 135.228 227.08 132.216 223.952C129.281 220.809 127.004 217.095 125.38 212.734C123.773 208.394 122.961 203.588 122.961 198.38C122.961 193.345 123.805 188.642 125.447 184.295C127.128 179.934 129.447 176.17 132.498 173.013C135.56 169.839 139.186 167.335 143.409 165.506C147.636 163.681 152.293 162.766 157.452 162.766C163.148 162.766 168.137 163.861 172.413 166.096C176.675 168.296 180.167 171.279 182.914 175.015C185.658 178.748 187.611 183.013 188.832 187.794C190.04 192.572 190.467 197.561 190.118 202.787H141.531C141.531 208.108 143.331 213.147 146.11 215.852Z" fill="white"/>
<path d="M216.385 139.009V174.072H216.809C219.157 170.171 222.126 167.335 225.777 165.577C229.421 163.804 232.977 162.929 236.441 162.929C241.381 162.929 245.428 163.578 248.588 164.916C251.752 166.279 254.255 168.123 256.088 170.52C257.885 172.907 259.156 175.82 259.901 179.252C260.632 182.678 261.01 186.456 261.01 190.622V231.999H242.426V193.98C242.426 188.437 241.561 184.27 239.838 181.544C238.111 178.815 235.046 177.445 230.626 177.445C225.626 177.445 222.01 178.959 219.771 181.95C217.49 184.941 216.385 189.863 216.385 196.713V231.999H197.808V139.009H216.385Z" fill="white"/>
<path d="M310.614 200.721C309.463 201.103 308.188 201.424 306.875 201.703C305.519 201.961 304.103 202.169 302.634 202.353C301.179 202.529 299.682 202.73 298.231 202.992C296.847 203.264 295.463 203.603 294.145 204.044C292.804 204.482 291.628 205.064 290.66 205.799C289.658 206.544 288.859 207.476 288.249 208.595C287.655 209.718 287.338 211.177 287.338 212.9C287.338 214.545 287.655 215.933 288.249 217.073C288.859 218.203 289.658 219.086 290.706 219.739C291.751 220.393 292.977 220.852 294.34 221.106C295.724 221.381 297.154 221.484 298.619 221.484C302.256 221.484 305.06 220.88 307.058 219.669C309.046 218.451 310.544 216.996 311.479 215.301C312.433 213.606 313.008 211.897 313.195 210.174C313.439 208.44 313.548 207.042 313.548 205.993V199.076C312.747 199.785 311.804 200.333 310.614 200.721ZM274.213 174.521C276.095 171.657 278.521 169.337 281.473 167.604C284.425 165.852 287.723 164.62 291.43 163.882C295.124 163.123 298.817 162.766 302.567 162.766C305.939 162.766 309.35 162.999 312.863 163.479C316.32 163.956 319.481 164.892 322.348 166.287C325.212 167.688 327.546 169.606 329.353 172.109C331.186 174.549 332.115 177.854 332.115 181.95V217.042C332.115 220.092 332.298 222.991 332.623 225.767C332.99 228.567 333.94 230.668 334.837 232.045L315.946 231.999C315.392 231.194 314.933 229.933 314.717 228.835C314.498 227.762 314.346 226.657 314.262 225.523C311.32 228.567 307.871 230.707 303.852 231.928C299.866 233.133 295.802 233.743 291.628 233.743C288.429 233.743 285.449 233.337 282.659 232.553C279.912 231.77 277.472 230.555 275.392 228.913C273.302 227.239 271.695 225.163 270.523 222.649C269.358 220.121 268.757 217.112 268.757 213.638C268.757 209.803 269.446 206.646 270.805 204.175C272.129 201.703 273.849 199.715 275.999 198.242C278.115 196.759 280.544 195.644 283.295 194.916C286.021 194.182 288.789 193.574 291.532 193.147C294.318 192.72 297.03 192.374 299.739 192.105C302.454 191.841 304.806 191.463 306.907 190.933C308.979 190.418 310.639 189.634 311.857 188.642C313.054 187.646 313.63 186.198 313.548 184.27C313.548 182.279 313.195 180.69 312.556 179.503C311.914 178.334 311.045 177.434 309.982 176.777C308.891 176.12 307.662 175.69 306.246 175.46C304.806 175.252 303.28 175.135 301.652 175.135C298.033 175.135 295.169 175.94 293.139 177.487C291.052 179.079 289.852 181.7 289.481 185.358H270.929C271.197 180.99 272.271 177.385 274.213 174.521Z" fill="white"/>
<path d="M359.851 164.687V174.073H360.264C362.605 170.171 365.624 167.335 369.374 165.577C373.092 163.804 376.945 162.929 380.85 162.929C385.811 162.929 389.882 163.578 393.028 164.917C396.231 166.28 398.72 168.123 400.525 170.52C402.375 172.907 403.646 175.821 404.388 179.253C405.136 182.678 405.507 186.456 405.507 190.623V231.999H386.916V193.981C386.916 188.437 386.044 184.27 384.31 181.544C382.552 178.815 379.519 177.063 375.066 177.063C370.034 177.063 366.369 178.96 364.116 181.95C361.849 184.941 360.727 189.863 360.727 196.714V231.999H342.337V164.687H359.851Z" fill="white"/>
<path d="M446.658 176.728C443.685 176.728 441.231 177.385 439.257 178.748C437.241 180.107 435.595 181.83 434.338 183.966C433.078 186.089 432.206 188.437 431.665 191.007C431.16 193.574 430.878 196.117 430.878 198.645C430.878 201.088 431.16 203.564 431.665 206.092C432.206 208.606 433.035 210.876 434.208 212.946C435.398 214.972 436.979 216.639 438.978 217.956C440.966 219.266 443.385 219.919 446.256 219.919C450.708 219.919 454.119 218.677 456.51 216.215C458.89 213.74 460.362 210.414 460.983 206.247H478.843C477.618 215.177 474.144 221.999 468.427 226.703C462.689 231.374 455.341 233.743 446.393 233.743C441.337 233.743 436.743 232.882 432.506 231.194C428.275 229.481 424.684 227.123 421.725 224.079C418.766 221.028 416.471 217.402 414.79 213.186C413.149 208.963 412.322 204.326 412.322 199.295C412.322 194.083 413.089 189.228 414.61 184.74C416.125 180.269 418.364 176.396 421.348 173.147C424.303 169.878 427.919 167.335 432.195 165.506C436.453 163.681 441.319 162.766 446.782 162.766C450.779 162.766 454.617 163.306 458.325 164.316C462.004 165.347 465.313 166.94 468.215 169.076C471.125 171.198 473.508 173.843 475.334 176.996C477.138 180.149 478.169 183.928 478.455 188.246H460.32C459.119 180.563 454.564 176.728 446.658 176.728Z" fill="white"/>
<path d="M137.749 145.249H175.443V154.426H137.749V145.249Z" fill="white"/>
<path d="M528.129 180.478C525.901 178.045 522.151 176.728 517.667 176.728C514.715 176.728 512.261 177.226 510.269 178.239C508.352 179.238 506.601 180.485 505.425 181.95C504.249 183.44 503.405 185.012 502.914 186.692C502.476 188.331 502.169 189.817 502.088 191.131H532.405C531.911 186.413 530.336 182.928 528.129 180.478ZM506.65 215.852C509.429 218.556 513.624 219.919 518.85 219.919C522.571 219.919 525.788 218.977 528.475 217.095C531.162 215.22 532.829 213.21 533.422 211.127H549.707C547.105 219.231 543.108 225.018 537.723 228.5C532.349 231.999 525.845 233.743 518.207 233.743C512.889 233.743 508.098 232.882 503.846 231.194C499.57 229.481 495.986 227.08 492.988 223.952C490.022 220.809 487.748 217.095 486.131 212.734C484.525 208.394 483.727 203.588 483.727 198.38C483.727 193.345 484.553 188.642 486.198 184.295C487.865 179.934 490.234 176.17 493.267 173.013C496.343 169.839 499.938 167.335 504.15 165.506C508.38 163.681 513.076 162.766 518.207 162.766C523.896 162.766 528.906 163.861 533.14 166.096C537.412 168.296 540.922 171.279 543.648 175.015C546.392 178.748 548.366 183.013 549.577 187.794C550.77 192.572 551.229 197.561 550.887 202.787H502.088C502.088 208.108 503.864 213.147 506.65 215.852Z" fill="white"/>
</g>
<defs>
<clipPath id="clip0_518_241">
<rect width="512" height="95" fill="white" transform="translate(39 139)"/>
</clipPath>
</defs>
</svg>
