<svg width="400" height="280" viewBox="0 0 400 280" fill="none" xmlns="http://www.w3.org/2000/svg">
<rect width="400" height="280" fill="black"/>
<g filter="url(#filter0_d_2030_646)">
<path d="M67.88 146.56C67.56 146.827 66.96 147.187 66.08 147.64C65.2267 148.093 64.1733 148.493 62.92 148.84C61.6667 149.187 60.28 149.347 58.76 149.32C56.44 149.267 54.36 148.853 52.52 148.08C50.7067 147.28 49.16 146.2 47.88 144.84C46.6267 143.48 45.6667 141.92 45 140.16C44.3333 138.4 44 136.52 44 134.52C44 132.28 44.3333 130.227 45 128.36C45.6933 126.493 46.6667 124.88 47.92 123.52C49.2 122.16 50.72 121.107 52.48 120.36C54.24 119.613 56.1867 119.24 58.32 119.24C60.2933 119.24 62.04 119.507 63.56 120.04C65.08 120.573 66.32 121.147 67.28 121.76L65 127.24C64.3333 126.733 63.44 126.213 62.32 125.68C61.2267 125.12 59.96 124.84 58.52 124.84C57.4 124.84 56.32 125.08 55.28 125.56C54.2667 126.013 53.36 126.667 52.56 127.52C51.7867 128.373 51.1733 129.373 50.72 130.52C50.2667 131.64 50.04 132.867 50.04 134.2C50.04 135.613 50.24 136.907 50.64 138.08C51.0667 139.253 51.6667 140.267 52.44 141.12C53.2133 141.947 54.1333 142.587 55.2 143.04C56.2933 143.493 57.52 143.72 58.88 143.72C60.4533 143.72 61.8 143.467 62.92 142.96C64.04 142.453 64.8933 141.92 65.48 141.36L67.88 146.56ZM71.8906 134.32C71.8906 132.293 72.2773 130.373 73.0506 128.56C73.824 126.747 74.8906 125.147 76.2506 123.76C77.6373 122.347 79.2373 121.24 81.0506 120.44C82.864 119.64 84.8106 119.24 86.8906 119.24C88.944 119.24 90.8773 119.64 92.6906 120.44C94.504 121.24 96.104 122.347 97.4906 123.76C98.904 125.147 99.9973 126.747 100.771 128.56C101.571 130.373 101.971 132.293 101.971 134.32C101.971 136.4 101.571 138.347 100.771 140.16C99.9973 141.973 98.904 143.573 97.4906 144.96C96.104 146.32 94.504 147.387 92.6906 148.16C90.8773 148.933 88.944 149.32 86.8906 149.32C84.8106 149.32 82.864 148.933 81.0506 148.16C79.2373 147.387 77.6373 146.32 76.2506 144.96C74.8906 143.573 73.824 141.973 73.0506 140.16C72.2773 138.347 71.8906 136.4 71.8906 134.32ZM77.8906 134.32C77.8906 135.627 78.1173 136.853 78.5706 138C79.0506 139.12 79.704 140.12 80.5306 141C81.384 141.853 82.3573 142.52 83.4506 143C84.5706 143.48 85.784 143.72 87.0906 143.72C88.344 143.72 89.504 143.48 90.5706 143C91.664 142.52 92.6106 141.853 93.4106 141C94.2106 140.12 94.8373 139.12 95.2906 138C95.744 136.853 95.9706 135.627 95.9706 134.32C95.9706 132.987 95.7306 131.747 95.2506 130.6C94.7973 129.453 94.1573 128.453 93.3306 127.6C92.5306 126.72 91.584 126.04 90.4906 125.56C89.3973 125.08 88.2106 124.84 86.9306 124.84C85.6506 124.84 84.464 125.08 83.3706 125.56C82.2773 126.04 81.3173 126.72 80.4906 127.6C79.664 128.453 79.024 129.453 78.5706 130.6C78.1173 131.747 77.8906 132.987 77.8906 134.32ZM107.753 149V118.36H107.793L124.153 141.56L121.673 141L137.993 118.36H138.073V149H132.273V131.44L132.633 134.44L122.673 148.6H122.593L112.353 134.44L113.353 131.68V149H107.753ZM145.683 119.56H151.483V149H145.683V119.56ZM185.441 150.2L163.121 130.04L164.841 131L164.961 149H159.081V118.4H159.321L181.161 138.48L179.881 137.92L179.761 119.56H185.601V150.2H185.441ZM217.063 146.04C216.716 146.413 216.169 146.8 215.423 147.2C214.676 147.573 213.809 147.92 212.823 148.24C211.863 148.56 210.876 148.813 209.863 149C208.849 149.213 207.889 149.32 206.983 149.32C204.583 149.32 202.423 148.973 200.503 148.28C198.583 147.56 196.943 146.573 195.583 145.32C194.223 144.04 193.183 142.533 192.463 140.8C191.743 139.067 191.383 137.173 191.383 135.12C191.383 132.427 191.783 130.093 192.583 128.12C193.409 126.12 194.516 124.467 195.903 123.16C197.316 121.827 198.929 120.84 200.743 120.2C202.583 119.56 204.503 119.24 206.503 119.24C208.396 119.24 210.129 119.453 211.703 119.88C213.276 120.28 214.609 120.787 215.703 121.4L213.823 126.8C213.343 126.533 212.703 126.267 211.903 126C211.103 125.733 210.289 125.52 209.463 125.36C208.636 125.173 207.903 125.08 207.263 125.08C205.663 125.08 204.249 125.28 203.023 125.68C201.796 126.08 200.756 126.68 199.903 127.48C199.076 128.28 198.449 129.28 198.023 130.48C197.596 131.653 197.383 133.027 197.383 134.6C197.383 135.987 197.623 137.24 198.103 138.36C198.583 139.453 199.249 140.387 200.103 141.16C200.983 141.933 202.009 142.52 203.183 142.92C204.383 143.32 205.703 143.52 207.143 143.52C207.969 143.52 208.729 143.467 209.423 143.36C210.116 143.227 210.703 143.027 211.183 142.76V139.2H206.103V133.6H217.063V146.04ZM252.379 126.68C251.259 126.067 250.113 125.56 248.939 125.16C247.793 124.76 246.713 124.56 245.699 124.56C244.446 124.56 243.459 124.813 242.739 125.32C242.019 125.827 241.659 126.587 241.659 127.6C241.659 128.293 241.926 128.92 242.459 129.48C243.019 130.013 243.726 130.493 244.579 130.92C245.459 131.347 246.366 131.733 247.299 132.08C248.153 132.4 248.993 132.787 249.819 133.24C250.673 133.667 251.433 134.213 252.099 134.88C252.766 135.52 253.299 136.333 253.699 137.32C254.099 138.28 254.299 139.467 254.299 140.88C254.299 142.373 253.913 143.76 253.139 145.04C252.366 146.32 251.233 147.36 249.739 148.16C248.246 148.933 246.406 149.32 244.219 149.32C243.099 149.32 241.953 149.213 240.779 149C239.633 148.76 238.499 148.413 237.379 147.96C236.259 147.48 235.179 146.88 234.139 146.16L236.699 141.64C237.393 142.147 238.139 142.6 238.939 143C239.766 143.373 240.593 143.667 241.419 143.88C242.246 144.093 243.006 144.2 243.699 144.2C244.393 144.2 245.086 144.107 245.779 143.92C246.499 143.707 247.086 143.36 247.539 142.88C248.019 142.4 248.259 141.733 248.259 140.88C248.259 140.293 248.059 139.76 247.659 139.28C247.286 138.8 246.766 138.36 246.099 137.96C245.459 137.56 244.753 137.213 243.979 136.92C243.073 136.573 242.139 136.173 241.179 135.72C240.219 135.267 239.313 134.72 238.459 134.08C237.633 133.413 236.953 132.6 236.419 131.64C235.913 130.653 235.659 129.453 235.659 128.04C235.659 126.333 236.033 124.853 236.779 123.6C237.553 122.347 238.633 121.36 240.019 120.64C241.406 119.893 243.006 119.48 244.819 119.4C247.193 119.4 249.113 119.68 250.579 120.24C252.073 120.8 253.406 121.467 254.579 122.24L252.379 126.68ZM258.18 134.32C258.18 132.293 258.566 130.373 259.34 128.56C260.113 126.747 261.18 125.147 262.54 123.76C263.926 122.347 265.526 121.24 267.34 120.44C269.153 119.64 271.1 119.24 273.18 119.24C275.233 119.24 277.166 119.64 278.98 120.44C280.793 121.24 282.393 122.347 283.78 123.76C285.193 125.147 286.286 126.747 287.06 128.56C287.86 130.373 288.26 132.293 288.26 134.32C288.26 136.4 287.86 138.347 287.06 140.16C286.286 141.973 285.193 143.573 283.78 144.96C282.393 146.32 280.793 147.387 278.98 148.16C277.166 148.933 275.233 149.32 273.18 149.32C271.1 149.32 269.153 148.933 267.34 148.16C265.526 147.387 263.926 146.32 262.54 144.96C261.18 143.573 260.113 141.973 259.34 140.16C258.566 138.347 258.18 136.4 258.18 134.32ZM264.18 134.32C264.18 135.627 264.406 136.853 264.86 138C265.34 139.12 265.993 140.12 266.82 141C267.673 141.853 268.646 142.52 269.74 143C270.86 143.48 272.073 143.72 273.38 143.72C274.633 143.72 275.793 143.48 276.86 143C277.953 142.52 278.9 141.853 279.7 141C280.5 140.12 281.126 139.12 281.58 138C282.033 136.853 282.26 135.627 282.26 134.32C282.26 132.987 282.02 131.747 281.54 130.6C281.086 129.453 280.446 128.453 279.62 127.6C278.82 126.72 277.873 126.04 276.78 125.56C275.686 125.08 274.5 124.84 273.22 124.84C271.94 124.84 270.753 125.08 269.66 125.56C268.566 126.04 267.606 126.72 266.78 127.6C265.953 128.453 265.313 129.453 264.86 130.6C264.406 131.747 264.18 132.987 264.18 134.32ZM292.242 134.32C292.242 132.293 292.629 130.373 293.402 128.56C294.176 126.747 295.242 125.147 296.602 123.76C297.989 122.347 299.589 121.24 301.402 120.44C303.216 119.64 305.162 119.24 307.242 119.24C309.296 119.24 311.229 119.64 313.042 120.44C314.856 121.24 316.456 122.347 317.842 123.76C319.256 125.147 320.349 126.747 321.122 128.56C321.922 130.373 322.322 132.293 322.322 134.32C322.322 136.4 321.922 138.347 321.122 140.16C320.349 141.973 319.256 143.573 317.842 144.96C316.456 146.32 314.856 147.387 313.042 148.16C311.229 148.933 309.296 149.32 307.242 149.32C305.162 149.32 303.216 148.933 301.402 148.16C299.589 147.387 297.989 146.32 296.602 144.96C295.242 143.573 294.176 141.973 293.402 140.16C292.629 138.347 292.242 136.4 292.242 134.32ZM298.242 134.32C298.242 135.627 298.469 136.853 298.922 138C299.402 139.12 300.056 140.12 300.882 141C301.736 141.853 302.709 142.52 303.802 143C304.922 143.48 306.136 143.72 307.442 143.72C308.696 143.72 309.856 143.48 310.922 143C312.016 142.52 312.962 141.853 313.762 141C314.562 140.12 315.189 139.12 315.642 138C316.096 136.853 316.322 135.627 316.322 134.32C316.322 132.987 316.082 131.747 315.602 130.6C315.149 129.453 314.509 128.453 313.682 127.6C312.882 126.72 311.936 126.04 310.842 125.56C309.749 125.08 308.562 124.84 307.282 124.84C306.002 124.84 304.816 125.08 303.722 125.56C302.629 126.04 301.669 126.72 300.842 127.6C300.016 128.453 299.376 129.453 298.922 130.6C298.469 131.747 298.242 132.987 298.242 134.32ZM354.465 150.2L332.145 130.04L333.865 131L333.985 149H328.105V118.4H328.345L350.185 138.48L348.905 137.92L348.785 119.56H354.625V150.2H354.465Z" fill="#FFC4F2"/>
</g>
<defs>
<filter id="filter0_d_2030_646" x="40" y="118.36" width="318.625" height="39.84" filterUnits="userSpaceOnUse" color-interpolation-filters="sRGB">
<feFlood flood-opacity="0" result="BackgroundImageFix"/>
<feColorMatrix in="SourceAlpha" type="matrix" values="0 0 0 0 0 0 0 0 0 0 0 0 0 0 0 0 0 0 127 0" result="hardAlpha"/>
<feOffset dy="4"/>
<feGaussianBlur stdDeviation="2"/>
<feComposite in2="hardAlpha" operator="out"/>
<feColorMatrix type="matrix" values="0 0 0 0 0 0 0 0 0 0 0 0 0 0 0 0 0 0 0.25 0"/>
<feBlend mode="normal" in2="BackgroundImageFix" result="effect1_dropShadow_2030_646"/>
<feBlend mode="normal" in="SourceGraphic" in2="effect1_dropShadow_2030_646" result="shape"/>
</filter>
</defs>
</svg>
