<svg width="96" height="96" viewBox="0 0 96 96" fill="none" xmlns="http://www.w3.org/2000/svg">
<path d="M84.3076 23.0476L51.9752 4.87507C49.5227 3.50258 46.4777 3.50258 44.0252 4.87507L11.6927 23.0476C9.21767 24.4351 7.68018 27.0376 7.68018 29.8276V66.1726C7.68018 68.9626 9.21767 71.5651 11.6927 72.9526L44.0252 91.1251C45.2552 91.8151 46.6277 92.1601 48.0002 92.1601C49.3727 92.1601 50.7452 91.8151 51.9752 91.1251L84.3076 72.9526C86.7826 71.5651 88.3201 68.9626 88.3201 66.1726V29.8276C88.3201 27.0376 86.7826 24.4351 84.3076 23.0476ZM48.0001 71.0401C35.2951 71.0401 24.9601 60.7051 24.9601 48.0001C24.9601 35.2951 35.2951 24.9601 48.0001 24.9601C55.2601 24.9601 61.9651 28.3276 66.3226 34.0651L57.9076 38.9326C55.3801 36.1651 51.7876 34.5601 48.0001 34.5601C40.5901 34.5601 34.5601 40.5901 34.5601 48.0001C34.5601 55.4101 40.5901 61.4401 48.0001 61.4401C51.7876 61.4401 55.3801 59.8351 57.9076 57.0676L66.3226 61.9351C61.9651 67.6726 55.2601 71.0401 48.0001 71.0401ZM71.0401 49.9201H67.2001V53.7601H63.3601V49.9201H59.5201V46.0801H63.3601V42.2401H67.2001V46.0801H71.0401V49.9201ZM84.4801 49.9201H80.6401V53.7601H76.8001V49.9201H72.9601V46.0801H76.8001V42.2401H80.6401V46.0801H84.4801V49.9201Z" fill="#CBACF9"/>
<path d="M79.6918 43.1171C79.3618 42.0169 78.9717 41.0101 78.5008 40.4533C78.3221 40.2421 77.9749 40.5567 77.7507 40.835C77.2976 41.3976 77.0264 42.7187 76.7763 44.7683C76.297 48.6975 77.4081 50.2751 78.3824 51.6428C78.7209 52.118 79.6318 51.9521 80.4086 51.842C81.811 51.6434 81.8022 48.7948 81.8314 46.2102C81.8468 44.8493 80.2553 43.9006 78.8075 43.0363C78.5377 42.8752 78.3616 42.8404 78.1666 42.8671C77.9715 42.8937 77.7515 43.0038 77.5281 43.3355C76.9768 44.1542 76.858 47.2045 77.023 51.0644C77.0849 52.5119 77.5181 52.8889 77.8257 53.1148C78.1332 53.3406 78.4083 53.3956 78.66 53.369C78.9117 53.3423 79.1317 53.2323 79.3001 52.9831C80.3468 51.4338 80.0252 47.748 79.8602 45.3267C79.8217 44.762 78.915 47.1662 78.7758 47.6721C78.7198 47.8758 78.8017 46.3077 78.3074 47.3904C77.8132 48.4731 76.768 51.8287 76.3946 52.5672C75.8339 53.6761 76.6913 48.6798 76.7738 47.7355C76.841 46.9668 78.0215 46.6778 78.9384 44.8199C79.8615 42.9493 79.5251 41.3985 79.5251 41.2001C79.5251 39.174 79.6918 45.1041 80.0236 46.9737C80.2322 48.1494 80.9137 49.1716 81.1071 49.5324C81.2003 49.7065 81.4655 49.7283 81.6614 49.7016C82.6016 49.5736 83.0791 47.5713 83.1925 46.3935C83.3919 44.3219 82.8074 50.3934 82.0039 50.9202C80.5958 51.8434 79.7519 52.3921 79.3593 53.1439C79.1604 53.5248 79.1367 53.9507 79.1084 54.2833C79.094 54.4523 79.2451 54.6159 79.4393 54.6734C79.6335 54.7309 79.9086 54.6759 80.2153 54.4275C81.5093 53.3796 81.5789 52.3455 82.1898 50.7085C82.5224 49.9584 83.0224 48.9582 83.55 47.8755C83.7476 47.4529 83.8026 47.2879 83.8593 46.7845" stroke="#CBACF9" stroke-width="2" stroke-linecap="round"/>
<path d="M84.526 47.2845C84.526 47.8346 84.526 48.7781 84.4435 49.8333C84.412 50.2357 84.196 50.3384 83.9734 50.4226C82.1532 51.1111 79.0317 50.5085 78.3032 50.1484C78.685 49.625 79.135 49.1199 79.3292 48.7873C79.4134 48.6198 79.4684 48.4548 79.6918 47.9513" stroke="#CBACF9" stroke-width="2" stroke-linecap="round"/>
<path d="M77.858 49.785C73.3055 49.785 72.2486 49.73 72.0244 49.5917C71.6186 49.3412 73.0221 49.1749 73.0796 48.9532C73.5182 47.2623 69.3598 48.5081 66.7551 48.4239C66.1905 48.4057 66.0258 48.3414 65.8308 48.2856C65.6358 48.2297 65.4157 48.1747 65.9075 48.1464C66.3992 48.1181 67.6095 48.1181 68.8563 48.1181" stroke="#CBACF9" stroke-width="14" stroke-linecap="round"/>
</svg>
