<svg width="388" height="36" viewBox="0 0 388 36" fill="none" xmlns="http://www.w3.org/2000/svg">
<path d="M10.2545 2.78048C9.96364 4.52603 9.74545 7.87167 9.6 10.2718L9.45455 14.5629L4.72727 17.254C2.10909 18.7086 0 20.3815 0 20.8906C0 21.9815 0.145455 21.9815 6.54545 21.2542L10.9091 20.8178L12.3636 23.8726C13.3818 25.9818 14.3273 27 15.2727 27C16.5091 27 16.7273 26.4181 16.9455 22.4179L17.1636 17.9086L20.9455 16.0176C24.7273 14.1266 28 11.581 28 10.5627C28 9.25356 24.8 9.18083 20.7273 10.3445C18.3273 10.9991 16.0727 11.3628 15.8545 11.0718C15.5636 10.7809 14.6909 8.23533 13.8182 5.39881C12.0727 -0.783354 10.8364 -1.65613 10.2545 2.78048Z" fill="#F9A8D4"/>
<path d="M383.139 17.6514C381.48 17.0355 378.237 16.1883 375.907 15.5914L371.721 14.6368L369.973 9.48574C369.04 6.63964 367.796 4.25216 367.296 4.15584C366.225 3.94944 366.198 4.09227 365.701 10.5143L365.304 14.8817L362.029 15.732C359.766 16.3328 358.587 17.0685 358.408 17.9969C358.174 19.2109 358.704 19.5353 362.591 20.5063L366.977 21.5737L368.119 25.645C369.26 29.7162 371.141 33.4115 372.14 33.6041C373.426 33.8518 374.103 30.7233 373.731 26.504C373.542 24.0235 373.611 21.7409 373.938 21.5817C374.279 21.351 376.944 20.9757 379.894 20.6554C386.295 20.111 387.386 19.0621 383.139 17.6514Z" fill="#F9A8D4"/>
</svg>
