<svg width="53" height="53" viewBox="0 0 53 53" fill="none" xmlns="http://www.w3.org/2000/svg">
<path d="M44.2141 3.11659C41.4216 4.91895 38.0086 7.049 36.6899 7.78633L34.2077 9.09714L30.9499 5.24665C28.7004 2.54312 27.2266 1.47809 26.063 1.64194C24.5892 1.88771 24.4341 2.54312 24.0463 9.26099L23.6584 16.6343L13.0315 21.6317C1.70651 26.9568 0 28.0219 0 29.8242C0 32.0362 3.49059 33.2651 11.6353 33.9205C24.5117 34.8217 23.5808 34.0843 24.0463 44.1611C24.4341 52.2717 24.5117 52.6814 26.2182 52.9271C28.6228 53.3368 29.7088 52.1898 34.2853 45.0623C38.474 38.5083 38.3964 38.5083 44.3692 41.7034C48.1701 43.7515 50.885 43.6696 51.9709 41.6215C52.9793 39.6553 52.9793 39.6553 47.9374 32.5278C45.9206 29.4965 44.2141 26.4653 44.2141 25.8099C44.2141 25.0726 46.386 19.5836 48.9458 13.603C53.8326 2.46119 54.1429 0.576912 50.7298 0.00343323C49.8766 -0.0784912 47.0065 1.31424 44.2141 3.11659ZM43.0506 14.3404L41.0338 19.092L39.4824 17.1258C38.7067 16.0608 38.0086 14.8319 38.0086 14.2584C38.0086 13.3573 44.2916 8.68751 44.8346 9.26099C44.9898 9.42484 44.2141 11.7187 43.0506 14.3404ZM29.4761 12.2103C29.4761 12.6199 29.1658 12.9476 28.7004 12.9476C28.3125 12.9476 27.9247 12.3741 27.9247 11.6368C27.9247 10.9814 28.3125 10.6537 28.7004 10.8995C29.1658 11.1453 29.4761 11.7187 29.4761 12.2103ZM35.6815 21.9594C37.6983 26.1376 37.8535 27.1207 37.0778 28.923C36.1469 31.217 35.1386 31.3808 30.8723 30.07C27.9247 29.2507 27.9247 29.2507 27.9247 24.7449C27.9247 20.5667 28.0798 20.157 30.4844 18.6824C31.8031 17.7812 33.0442 17.0439 33.1218 17.0439C33.2769 17.0439 34.3629 19.2559 35.6815 21.9594ZM23.5808 24.8268C24.7444 28.1857 22.2622 29.6604 17.0651 28.6773L13.5745 28.0219L17.4529 25.8099C21.9519 23.3521 22.9603 23.1883 23.5808 24.8268ZM32.4237 36.624C33.3545 37.1975 33.2769 37.6891 32.2685 39.6553C31.648 40.9661 30.4069 42.9323 29.5536 44.0792L27.9247 46.1274V40.9661C27.9247 36.2144 28.0798 35.8867 29.7088 35.8867C30.6396 35.8867 31.8807 36.2144 32.4237 36.624Z" fill="#F9A8D4"/>
</svg>
