<svg width="38" height="80" viewBox="0 0 38 80" fill="none" xmlns="http://www.w3.org/2000/svg">
<path d="M11.1478 8.5012C2.2113 23.6016 1.30483 25.562 2.4021 27.3104C2.7948 27.8885 5.30771 29.1582 9.03061 30.6782C12.3506 32.0377 15.3316 33.3642 15.6289 33.6355C16.4324 34.4189 16.0102 34.8624 8.32789 41.6583C1.01049 48.1593 -0.265153 49.6761 0.0407523 51.4244C0.315283 52.9934 0.403952 53.024 5.53958 56.1911C8.01873 57.7439 10.2071 59.3014 10.399 59.6836C10.6391 60.1036 10.1458 61.807 9.01795 64.4067C4.30348 75.0723 2.9719 79.6019 4.62882 79.312C5.43707 79.1706 25.1243 58.8627 25.4524 57.8813C25.8064 56.5719 24.9558 55.5195 21.5441 53.1597C19.7418 51.9042 18.2066 50.5096 18.136 50.1062C17.8693 48.582 21.0111 45.3527 29.0065 38.9179C35.5748 33.6105 37.1165 32.1858 37.1695 31.2987C37.1888 30.6947 37.088 29.8807 36.904 29.5433C36.4317 28.7482 33.8132 27.5893 30.2653 26.5931C28.6849 26.1304 26.5647 25.4388 25.5254 24.9738C22.2941 23.645 22.4594 22.9231 27.9219 14.3904C30.8688 9.80918 32.6051 6.64093 32.511 6.10299C32.409 5.52023 31.5 4.84768 29.647 4.0169C25.9893 2.39309 17.9192 -0.16809 16.9089 0.00868854C16.4239 0.0935421 14.2677 3.24284 11.1478 8.5012ZM23.9579 4.82755C27.0939 5.84965 29.7214 6.82211 29.7527 7.00143C29.7841 7.18074 28.9868 8.33666 27.9874 9.52794C25.3136 12.814 21.558 19.2 21.1926 21.1581C20.4044 25.2231 21.5692 26.4053 28.7526 28.6596C31.4935 29.566 33.8954 30.4394 34.0637 30.6871C34.489 31.2133 34.3756 31.2794 28.6112 35.7068C18.1773 43.6771 14.6737 48.171 16.3688 51.4318C16.6885 52.0689 18.3202 53.539 20.0182 54.6741C21.6758 55.8163 23.0752 56.9112 23.1066 57.0905C23.138 57.2698 22.1554 58.3196 20.9383 59.4565C19.6886 60.6454 16.4738 63.9337 13.7699 66.8093C11.066 69.6848 8.80121 71.9753 8.71254 71.9446C8.61603 71.8691 9.63828 69.3802 10.9615 66.4691C13.5181 60.8473 13.6857 59.663 12.1451 57.7611C11.7041 57.1453 9.33052 55.4816 6.90747 54.0113C4.48443 52.5411 2.50472 51.2242 2.47335 51.0449C2.39491 50.5967 4.53849 48.3274 7.04458 46.2257C18.0515 36.7691 19.0744 35.7123 18.7214 33.695C18.3998 31.8571 16.951 30.9556 10.302 28.4229C7.04597 27.1909 4.35453 26.091 4.34668 26.0461C4.26825 25.5979 6.64816 21.3468 10.8923 14.1823C13.5967 9.6435 16.0575 5.37831 16.4169 4.57621C16.7842 3.81893 17.3367 3.16786 17.66 3.11129C17.9833 3.05472 20.7893 3.85735 23.9579 4.82755Z" fill="#F9A8D4"/>
</svg>
