<svg width="217" height="72" viewBox="0 0 217 72" fill="none" xmlns="http://www.w3.org/2000/svg">
<path d="M204.341 0.659622C202.735 0.936901 196.405 1.56078 190.265 1.97669C172.977 3.15513 160.979 6.5518 158.523 10.919C157.484 12.6519 157.578 13.3451 158.995 15.4941C160.601 17.9896 166.269 21.5942 169.859 22.426C170.804 22.7033 171.654 23.2579 171.654 23.6738C171.56 24.7829 159.09 34.3491 153.61 37.5378C149.265 40.1026 143.596 42.1822 141.046 42.1822C138.684 42.1822 133.11 38.0923 128.764 33.2399C119.317 22.634 113.177 18.4055 105.808 17.5043C94.1883 16.1873 82.8518 26.7932 70.7596 50.5006C64.3356 63.0475 61.9738 65.6123 58.6673 63.602C57.8171 63.1168 54.8885 59.3735 52.1489 55.2836C43.6465 42.5981 38.5451 38.7162 30.3262 38.7162C22.0127 38.7162 11.3376 45.5789 5.00805 54.8677C1.22922 60.6213 -1.03807 66.86 0.473458 67.9692C1.89052 69.009 3.2131 68.1078 4.44122 65.1964C8.31451 56.3928 19.2731 45.8561 26.075 44.3311C32.8769 42.8754 34.105 43.7072 43.1742 57.086C49.5037 66.4441 51.8654 69.1476 54.4162 70.3954C62.7296 74.4852 69.5314 70.8113 75.672 58.7496C84.1744 42.3902 87.7643 36.3593 91.732 31.8535C95.9832 27.0012 100.234 24.159 103.257 24.159C106.942 24.159 111.571 27.5557 119.223 36.0127C129.048 46.7573 132.449 48.7676 140.857 48.7676C145.108 48.7676 147.848 48.3517 151.248 47.0346C156.728 44.955 168.253 37.2605 173.166 32.3388L176.756 28.8035L178.362 33.1013C180.156 38.1616 182.707 40.3106 188.281 41.9049C203.774 46.2721 217 32.8933 217 12.9292C217 5.02677 215.583 1.6301 211.804 0.590302C208.97 -0.241536 208.12 -0.172216 204.341 0.659622ZM209.442 11.5428C209.348 28.5955 198.484 41.0038 188.942 34.9729C186.392 33.3093 186.297 33.1013 186.203 26.1C186.108 22.1488 186.014 18.5441 185.919 18.0589C185.73 16.8805 182.896 17.0191 180.251 18.3362C178.456 19.3066 177.511 19.376 174.488 18.6828C171.087 17.9896 165.041 14.3849 165.041 13.1372C165.041 12.3747 171.654 9.80983 175.905 8.978C177.984 8.56208 185.825 7.73024 193.382 7.17568C200.846 6.5518 207.175 5.92792 207.364 5.78928C208.687 4.81881 209.442 6.8984 209.442 11.5428Z" fill="#CBACF9"/>
</svg>
