<svg width="98" height="97" viewBox="0 0 98 97" fill="none" xmlns="http://www.w3.org/2000/svg">
<path d="M22.8062 1.86244C22.6182 2.99673 22.4303 6.066 22.4303 8.80165V13.6724L18.0451 16.1412C11.8433 19.6108 12.8456 20.8785 20.5509 19.5441L23.37 19.077L24.6229 21.8794C25.4999 23.8144 26.3769 24.8152 27.3166 24.9487C28.6322 25.1488 28.6948 24.9487 28.6948 20.8785V16.5415L33.2053 13.9393C38.5301 10.8701 39.4698 9.06854 35.7737 9.06854C34.4582 9.06854 32.0777 9.5356 30.4489 10.0027L27.5672 11.0035L27.1287 9.20199C25.124 0.461254 23.5579 -2.20767 22.8062 1.86244Z" fill="#F9A8D4"/>
<path d="M93.2347 44.8502C91.5757 44.2343 88.3317 43.3871 86.0025 42.7902L81.8163 41.8355L80.0682 36.6845C79.1352 33.8384 77.8916 31.4509 77.3917 31.3546C76.3204 31.1482 76.2929 31.291 75.7963 37.713L75.3992 42.0804L72.1245 42.9308C69.8607 43.5315 68.682 44.2673 68.5031 45.1956C68.2692 46.4097 68.7993 46.734 72.686 47.705L77.0726 48.7724L78.214 52.8437C79.3554 56.915 81.2358 60.6102 82.2357 60.8028C83.5212 61.0505 84.198 57.9221 83.8259 53.7027C83.6372 51.2222 83.7066 48.9396 84.0336 48.7804C84.3743 48.5498 87.039 48.1744 89.9894 47.8541C96.3901 47.3098 97.4811 46.2608 93.2347 44.8502Z" fill="#F9A8D4"/>
<path d="M10.2545 72.7805C9.96364 74.526 9.74545 77.8717 9.6 80.2718L9.45455 84.5629L4.72727 87.254C2.10909 88.7086 0 90.3815 0 90.8906C0 91.9815 0.145455 91.9815 6.54545 91.2542L10.9091 90.8178L12.3636 93.8726C13.3818 95.9818 14.3273 97 15.2727 97C16.5091 97 16.7273 96.4181 16.9455 92.4179L17.1636 87.9086L20.9455 86.0176C24.7273 84.1266 28 81.581 28 80.5627C28 79.2536 24.8 79.1808 20.7273 80.3445C18.3273 80.9991 16.0727 81.3628 15.8545 81.0718C15.5636 80.7809 14.6909 78.2353 13.8182 75.3988C12.0727 69.2166 10.8364 68.3439 10.2545 72.7805Z" fill="#F9A8D4"/>
</svg>
