<svg width="32" height="30" viewBox="0 0 32 30" fill="none" xmlns="http://www.w3.org/2000/svg">
<path d="M28.8037 13.5455C26.8752 12.9296 23.1043 12.0824 20.3966 11.4855L15.5304 10.5308L13.4983 5.37978C12.4137 2.53369 10.9681 0.146203 10.387 0.0498831C9.14169 -0.156517 9.1097 -0.0136892 8.53239 6.40833L8.07084 10.7757L4.26412 11.6261C1.63263 12.2268 0.262426 12.9626 0.0544978 13.891C-0.217408 15.105 0.398767 15.4293 4.91687 16.4004L10.0161 17.4677L11.3429 21.539C12.6697 25.6103 14.8556 29.3055 16.0179 29.4981C17.5123 29.7458 18.299 26.6174 17.8664 22.398C17.6471 19.9175 17.7278 17.6349 18.1079 17.4757C18.5039 17.2451 21.6015 16.8697 25.0312 16.5494C32.4718 16.0051 33.7399 14.9561 28.8037 13.5455Z" fill="#CBACF9"/>
</svg>
