<svg width="33" height="27" viewBox="0 0 33 27" fill="none" xmlns="http://www.w3.org/2000/svg">
<path d="M12.0857 2.78048C11.7429 4.52603 11.4857 7.87167 11.3143 10.2718L11.1429 14.5629L5.57143 17.254C2.48571 18.7086 0 20.3815 0 20.8906C0 21.9815 0.171429 21.9815 7.71429 21.2542L12.8571 20.8178L14.5714 23.8726C15.7714 25.9818 16.8857 27 18 27C19.4571 27 19.7143 26.4181 19.9714 22.4179L20.2286 17.9086L24.6857 16.0176C29.1429 14.1266 33 11.581 33 10.5627C33 9.25356 29.2286 9.18083 24.4286 10.3445C21.6 10.9991 18.9429 11.3628 18.6857 11.0718C18.3429 10.7809 17.3143 8.23533 16.2857 5.39881C14.2286 -0.783354 12.7714 -1.65613 12.0857 2.78048Z" fill="#CBACF9"/>
</svg>
