<svg width="99" height="123" viewBox="0 0 99 123" fill="none" xmlns="http://www.w3.org/2000/svg">
<path d="M43.6 2.30206C42.4 3.6354 40.1333 11.6354 38.4 21.6354L35.3333 38.7021L20.6667 44.5687C6.53333 50.3021 0 54.9687 0 59.3687C0 62.9687 5.06667 66.3021 12.9333 67.7687C29.2 70.9687 37.8667 73.3687 40.1333 75.3687C41.4667 76.5687 45.4667 85.2354 49.3333 94.7021C57.3333 114.969 60.5333 120.835 64.4 122.035C71.2 124.169 73.6 113.235 72.9333 81.9021C72.8 73.1021 73.0667 64.4354 73.6 62.5687C74.1333 60.4354 79.3333 55.2354 86.6667 49.5021C96.9333 41.2354 98.6667 39.2354 98.6667 35.9021C98.6667 30.5687 95.3333 29.9021 79.8667 32.3021C62.5333 35.1021 61.7333 34.7021 57.2 18.9687C52 0.968731 48.5333 -3.29794 43.6 2.30206ZM51.7333 27.2354C55.8667 41.3687 60.2667 43.5021 78.9333 40.5687L84.6667 39.7687L80 43.9021C77.4667 46.1687 73.4667 49.9021 71.0667 51.9021C65.2 57.3687 64 62.8354 64 86.4354C64 98.8354 63.4667 106.569 62.8 105.769C62.1333 105.102 59.0667 97.9021 56 89.9021C52.8 81.7687 49.2 73.6354 47.8667 71.7687C44.6667 67.1021 34.5333 62.9687 22.1333 60.9687C16.5333 60.1687 12 58.9687 12 58.5687C12 57.1021 31.6 49.2354 35.2 49.2354C38.8 49.2354 39.4667 47.6354 44.8 26.1687C46 21.2354 47.3333 17.2354 47.8667 17.2354C48.4 17.2354 50.1333 21.7687 51.7333 27.2354Z" fill="#CBACF9"/>
</svg>
